<!-- Generated by IcoMoon.io -->
<svg version="1.1" xmlns="http://www.w3.org/2000/svg" width="32" height="32" viewBox="0 0 32 32">
<title>github</title>
<path fill="#3f91cb" d="M32 16c0 8.837-7.163 16-16 16s-16-7.163-16-16c0-8.837 7.163-16 16-16s16 7.163 16 16z"></path>
<path fill="#fff" d="M16 7.261c-4.948 0.002-8.958 4.013-8.958 8.961 0 3.935 2.536 7.277 6.062 8.482l0.063 0.019c0.447 0.082 0.613-0.194 0.613-0.431 0-0.214-0.008-0.919-0.012-1.668-2.492 0.542-3.019-1.057-3.019-1.057-0.408-1.036-0.995-1.313-0.995-1.313-0.813-0.556 0.063-0.544 0.063-0.544 0.899 0.063 1.375 0.924 1.375 0.924 0.799 1.369 2.096 0.974 2.607 0.744 0.081-0.579 0.313-0.974 0.569-1.198-1.992-0.225-4.085-0.992-4.085-4.427-0-0.015-0-0.032-0-0.049 0-0.911 0.351-1.74 0.925-2.358l-0.002 0.002c-0.093-0.226-0.4-1.137 0.087-2.371 0 0 0.75-0.241 2.464 0.919 0.673-0.191 1.445-0.302 2.244-0.302s1.571 0.11 2.304 0.316l-0.060-0.014c1.71-1.159 2.462-0.919 2.462-0.919 0.488 1.234 0.181 2.146 0.088 2.371 0.572 0.615 0.922 1.443 0.922 2.352 0 0.019-0 0.037-0 0.056l0-0.003c0 3.442-2.096 4.199-4.091 4.421 0.321 0.278 0.608 0.823 0.608 1.659 0 1.199-0.010 2.164-0.010 2.459 0 0.239 0.161 0.518 0.616 0.43 3.588-1.224 6.123-4.566 6.123-8.5 0-4.949-4.012-8.961-8.961-8.961-0 0-0 0-0 0v0z"></path>
<path fill="#fff" d="M10.434 20.125c-0.020 0.044-0.090 0.058-0.154 0.027s-0.101-0.090-0.081-0.135 0.089-0.059 0.154-0.028 0.102 0.091 0.080 0.135z"></path>
<path fill="#fff" d="M10.797 20.531c-0.043 0.039-0.125 0.021-0.183-0.041s-0.069-0.146-0.026-0.188 0.125-0.021 0.184 0.041 0.070 0.146 0.026 0.188z"></path>
<path fill="#fff" d="M11.15 21.047c-0.055 0.038-0.145 0-0.2-0.078s-0.055-0.175 0-0.213 0.144-0.004 0.201 0.075 0.054 0.176 0 0.216z"></path>
<path fill="#fff" d="M11.634 21.545c-0.049 0.054-0.154 0.039-0.23-0.034s-0.1-0.175-0.051-0.229 0.155-0.039 0.232 0.034 0.101 0.175 0.049 0.229z"></path>
<path fill="#fff" d="M12.301 21.835c-0.022 0.070-0.125 0.102-0.224 0.072s-0.168-0.113-0.148-0.184 0.125-0.104 0.224-0.072 0.168 0.112 0.146 0.184z"></path>
<path fill="#fff" d="M13.035 21.888c0 0.074-0.084 0.135-0.188 0.137s-0.194-0.058-0.195-0.131 0.084-0.135 0.191-0.137 0.194 0.058 0.194 0.131z"></path>
<path fill="#fff" d="M13.717 21.773c0.012 0.072-0.063 0.146-0.167 0.166s-0.201-0.026-0.214-0.097 0.063-0.148 0.166-0.168 0.201 0.025 0.214 0.098z"></path>
</svg>
