<!-- Generated by IcoMoon.io -->
<svg version="1.1" xmlns="http://www.w3.org/2000/svg" width="32" height="32" viewBox="0 0 32 32">
<title>gmail</title>
<path fill="#c72020" d="M8.54 29.161v0c-0.271 0.418-0.828 0.536-1.245 0.265-4.391-2.852-7.295-7.801-7.295-13.426 0-0.611 0.034-1.214 0.101-1.808 0.059-0.523 0.554-0.884 1.071-0.78v0c0.457 0.092 0.768 0.518 0.716 0.981-0.059 0.527-0.090 1.063-0.090 1.606 0 4.993 2.577 9.384 6.473 11.916 0.418 0.272 0.541 0.828 0.27 1.246z"></path>
<path fill="#517bbd" d="M25.068 28.073c0.294 0.414 0.189 0.989-0.234 1.27-1.192 0.791-2.497 1.427-3.886 1.878-0.413 0.134-0.832 0.251-1.258 0.352-0.095 0.023-0.191 0.044-0.287 0.065-0.238 0.051-0.476 0.098-0.718 0.138-0.168 0.028-0.336 0.054-0.505 0.077-0.067 0.009-0.134 0.018-0.201 0.026-0.036 0.004-0.073 0.009-0.109 0.013-0.071 0.008-0.142 0.016-0.213 0.023-0.292 0.030-0.586 0.052-0.883 0.066-0.257 0.012-0.515 0.019-0.775 0.019-0.279 0-0.555-0.007-0.83-0.021-0.325-0.016-0.647-0.043-0.966-0.079-1.277-0.142-2.508-0.435-3.676-0.861-0.539-0.196-1.066-0.421-1.576-0.672-0.482-0.237-0.647-0.844-0.354-1.294v0c0.246-0.38 0.739-0.521 1.145-0.321 0.454 0.223 0.921 0.423 1.401 0.598 1.036 0.378 2.129 0.637 3.262 0.764 0.283 0.032 0.569 0.056 0.857 0.070 0.244 0.012 0.489 0.019 0.737 0.019 0.231 0 0.46-0.006 0.688-0.017 0.262-0.012 0.524-0.032 0.783-0.059 0.063-0.006 0.126-0.013 0.189-0.021 0.032-0.004 0.065-0.008 0.097-0.011 0.059-0.008 0.119-0.015 0.178-0.023 0.151-0.020 0.299-0.044 0.448-0.069 0.214-0.036 0.426-0.077 0.637-0.122 0.086-0.018 0.171-0.038 0.255-0.058 0.378-0.089 0.751-0.194 1.117-0.313 1.23-0.399 2.387-0.962 3.444-1.664 0.404-0.269 0.949-0.171 1.231 0.226v0z"></path>
<path fill="#2ea853" d="M32 16.442c0 0.464-0.021 0.922-0.063 1.376-0.021 0.228-0.047 0.456-0.079 0.681-0.002 0.017-0.004 0.034-0.007 0.052-0.062 0.436-0.142 0.866-0.241 1.289-0.016 0.064-0.031 0.128-0.047 0.192-0.080 0.324-0.171 0.644-0.272 0.96-0.052 0.165-0.108 0.329-0.166 0.492-0.946 2.639-2.612 4.953-4.773 6.723-0.401 0.328-1.008 0.253-1.312-0.16v0c-0.271-0.367-0.204-0.872 0.151-1.163 1.918-1.571 3.396-3.624 4.235-5.966 0.052-0.144 0.101-0.29 0.148-0.436 0.090-0.28 0.171-0.565 0.241-0.852 0.014-0.057 0.028-0.113 0.042-0.171 0.087-0.376 0.159-0.757 0.214-1.144 0.002-0.016 0.004-0.031 0.006-0.046 0.028-0.2 0.052-0.402 0.070-0.604 0.038-0.402 0.056-0.81 0.056-1.222 0-0.067-0.001-0.134-0.002-0.202-0.009-0.619-0.061-1.227-0.152-1.823-0.068-0.443 0.223-0.863 0.673-0.971v0c0.512-0.122 1.026 0.206 1.104 0.709 0.104 0.673 0.163 1.36 0.173 2.059 0.001 0.075 0.001 0.15 0.001 0.226z"></path>
<path fill="#e84336" d="M15.986 0.926v0c0 0.474-0.368 0.869-0.841 0.897-6.336 0.376-11.555 4.907-12.969 10.906-0.111 0.471-0.576 0.769-1.051 0.674h-0.001c-0.496-0.1-0.815-0.589-0.699-1.082 1.591-6.763 7.473-11.87 14.614-12.294 0.514-0.030 0.947 0.383 0.947 0.898z"></path>
<path fill="#fbbc18" d="M15.93 0.926v0c0 0.474 0.368 0.869 0.841 0.897 6.336 0.376 11.555 4.907 12.969 10.906 0.111 0.471 0.576 0.769 1.051 0.674h0.001c0.496-0.1 0.815-0.589 0.699-1.082-1.591-6.763-7.473-11.87-14.614-12.294-0.514-0.030-0.947 0.383-0.947 0.898z"></path>
<path fill="#c72020" d="M11.531 10.999v4.69l-3.625-2.714v-1.427c0-0.889 0.721-1.611 1.611-1.611v0c0.387 0 0.764 0.126 1.074 0.357l0.941 0.704z"></path>
<path fill="#fbbc18" d="M24.094 11.548v1.433l-3.652 2.736v-4.69l0.984-0.737c0.305-0.229 0.676-0.352 1.058-0.352v0c0.889 0 1.611 0.721 1.611 1.611z"></path>
<path fill="#517bbd" d="M11.531 15.689v6.373h-2.479c-0.633 0-1.146-0.512-1.146-1.146v-7.942l3.625 2.714z"></path>
<path fill="#2ea853" d="M24.094 12.981v7.936c0 0.633-0.513 1.146-1.146 1.146h-2.507v-6.346l3.652-2.736z"></path>
<path fill="#e84336" d="M20.441 11.027v4.69l-4.437 3.322-4.473-3.35v-4.69l4.473 3.35z"></path>
</svg>
