<!-- Generated by IcoMoon.io -->
<svg version="1.1" xmlns="http://www.w3.org/2000/svg" width="32" height="32" viewBox="0 0 32 32">
<title>linkedin</title>
<path fill="#007bbc" d="M15.999 31.718c-8.678 0-15.738-7.060-15.738-15.738s7.060-15.738 15.738-15.738c8.678 0 15.738 7.060 15.738 15.738s-7.060 15.738-15.738 15.738z"></path>
<path fill="#fff" d="M24.896 17.179v5.876c0 0.145-0.118 0.263-0.263 0.263h-3.034c-0.145 0-0.263-0.118-0.263-0.263v-5.465c0-1.438-0.514-2.42-1.803-2.42-0.983 0-1.568 0.661-1.826 1.302-0.094 0.229-0.118 0.547-0.118 0.868v5.716c0 0.145-0.118 0.263-0.263 0.263h-3.033c-0.146 0-0.264-0.117-0.263-0.263 0.007-1.455 0.037-8.517 0.006-10.176-0.003-0.147 0.116-0.266 0.263-0.266h3.027c0.145 0 0.263 0.118 0.263 0.263v1.254c-0.007 0.012-0.017 0.024-0.024 0.035h0.024v-0.035c0.473-0.728 1.317-1.768 3.208-1.768 2.342 0 4.098 1.53 4.098 4.818v0zM8.767 23.318h3.033c0.145 0 0.263-0.118 0.263-0.263v-10.18c0-0.145-0.118-0.263-0.263-0.263h-3.033c-0.145 0-0.263 0.118-0.263 0.263v10.18c0 0.145 0.118 0.263 0.263 0.263z"></path>
<path fill="#fff" d="M12.082 9.345c0 1.052-0.853 1.905-1.905 1.905s-1.905-0.853-1.905-1.905c0-1.052 0.853-1.905 1.905-1.905s1.905 0.853 1.905 1.905z"></path>
</svg>
