<!-- Generated by IcoMoon.io -->
<svg version="1.1" xmlns="http://www.w3.org/2000/svg" width="32" height="32" viewBox="0 0 32 32">
<title>location</title>
<path fill="#5f9eeb" d="M32 16c0 1.575-0.228 3.097-0.652 4.534-0.994 3.368-3.066 6.275-5.818 8.318-2.662 1.977-5.959 3.147-9.53 3.147-8.836 0-16-7.164-16-16 0-4.422 1.794-8.424 4.694-11.32 2.895-2.891 6.892-4.68 11.306-4.68 3.314 0 6.392 1.008 8.946 2.733 4.256 2.875 7.054 7.745 7.054 13.267z"></path>
<path fill="#3a82d0" d="M32 16c0 1.575-0.228 3.096-0.652 4.535-0.994 3.368-3.067 6.275-5.819 8.318-2.662 1.978-5.959 3.147-9.53 3.147-0.361 0-0.719-0.012-1.073-0.035 3.157-0.209 6.064-1.333 8.456-3.112 2.752-2.043 4.824-4.95 5.819-8.318 0.424-1.438 0.652-2.959 0.652-4.535 0-5.522-2.798-10.392-7.054-13.267-2.276-1.538-4.969-2.506-7.874-2.698 0.355-0.023 0.714-0.035 1.075-0.035 3.314 0 6.392 1.008 8.946 2.733 4.256 2.875 7.054 7.744 7.054 13.267z"></path>
<path fill="#a0d37d" d="M32 16c0 1.575-0.228 3.096-0.652 4.535l-2.847-2.847c-0.094-0.094-0.215-0.157-0.346-0.179l-3.266-0.562c-0.131-0.023-0.252-0.085-0.346-0.179l-0.459-0.459c-0.121-0.121-0.189-0.285-0.189-0.455v-4.412c0-0.171 0.068-0.335 0.189-0.455l0.674-0.674c0.121-0.121 0.189-0.284 0.189-0.455v-7.123c4.256 2.875 7.054 7.744 7.054 13.267z"></path>
<path fill="#84b75b" d="M32 16c0 1.575-0.228 3.096-0.652 4.535l-1.739-1.739c0.16-0.908 0.244-1.841 0.244-2.796 0-4.53-1.882-8.619-4.907-11.53v-1.737c4.256 2.875 7.054 7.744 7.054 13.267z"></path>
<path fill="#a0d37d" d="M25.53 25.713v3.14c-2.661 1.977-5.957 3.147-9.527 3.147-0.361 0-0.719-0.012-1.073-0.035-8.214-0.548-14.79-7.351-14.928-15.695-0.074-4.528 1.733-8.635 4.692-11.589l1.232 3.416c0.1 0.277 0.364 0.463 0.659 0.463h4.788c0.185 0 0.364 0.074 0.495 0.205l2.118 2.118c0.132 0.131 0.205 0.31 0.205 0.496v8.124c0 0.186 0.074 0.364 0.205 0.496l1.702 1.702c0.131 0.131 0.31 0.205 0.495 0.205h5.127c0.186 0 0.364 0.074 0.496 0.205l3.107 3.107c0.131 0.131 0.205 0.31 0.205 0.496z"></path>
<path fill="#84b75b" d="M25.53 26.939v1.914c-2.661 1.977-5.957 3.147-9.527 3.147-0.361 0-0.719-0.012-1.073-0.035 3.156-0.21 6.061-1.334 8.453-3.112 0.772-0.573 1.491-1.214 2.147-1.914z"></path>
<path fill="#eb5777" d="M19.897 14.163c0 2.301-3.413 8.464-4.648 10.619-0.195 0.339-0.684 0.339-0.878 0-1.235-2.154-4.648-8.317-4.648-10.619 0-2.81 2.278-5.087 5.087-5.087s5.087 2.278 5.087 5.087z"></path>
<path fill="#ebeef2" d="M17.167 13.616c0 1.302-1.056 2.358-2.358 2.358s-2.358-1.056-2.358-2.358c0-1.302 1.056-2.358 2.358-2.358s2.358 1.056 2.358 2.358z"></path>
<path fill="#5f9eeb" d="M7.336 21.875h-1.158c-0.267 0-0.483-0.216-0.483-0.483s0.216-0.483 0.483-0.483h1.158c0.267 0 0.483 0.216 0.483 0.483s-0.216 0.483-0.483 0.483z"></path>
<path fill="#5f9eeb" d="M10.16 23.665h-3.982c-0.267 0-0.483-0.216-0.483-0.483s0.216-0.483 0.483-0.483h3.982c0.267 0 0.483 0.216 0.483 0.483s-0.216 0.483-0.483 0.483z"></path>
<path fill="#5f9eeb" d="M10.16 25.022h-3.982c-0.267 0-0.483-0.216-0.483-0.483s0.216-0.483 0.483-0.483h3.982c0.267 0 0.483 0.216 0.483 0.483s-0.216 0.483-0.483 0.483z"></path>
</svg>
