<!-- Generated by IcoMoon.io -->
<svg version="1.1" xmlns="http://www.w3.org/2000/svg" width="32" height="32" viewBox="0 0 32 32">
<title>phone</title>
<path fill="#52c306" d="M27.988 25.038c-1.012-1.913-4.746-4.102-4.746-4.102-0.845-0.482-1.864-0.535-2.346 0.323 0 0-1.213 1.455-1.522 1.664-1.41 0.955-2.715 0.918-4.033-0.4l-6.126-6.126c-1.318-1.318-1.355-2.624-0.4-4.033 0.209-0.309 1.664-1.522 1.664-1.522 0.858-0.482 0.805-1.501 0.323-2.346 0 0-2.188-3.734-4.102-4.746-0.814-0.431-1.813-0.281-2.465 0.371l-1.353 1.353c-4.291 4.291-2.178 9.136 2.113 13.427l7.844 7.844c4.291 4.291 9.136 6.404 13.427 2.113l1.353-1.353c0.65-0.652 0.801-1.652 0.37-2.466z"></path>
<path fill="#388f04" d="M21.15 31.74c-0.562 0-1.135-0.068-1.72-0.203-2.204-0.509-4.549-1.995-6.97-4.417l-7.843-7.844c-5.33-5.329-6.061-10.232-2.113-14.18l1.353-1.353c0.822-0.822 2.063-1.009 3.091-0.465 2.025 1.071 4.22 4.79 4.312 4.948 0.392 0.686 0.514 1.391 0.348 1.99-0.125 0.451-0.41 0.817-0.825 1.065-0.651 0.544-1.411 1.219-1.53 1.384-0.855 1.261-0.754 2.265 0.337 3.356l6.126 6.126c1.090 1.090 2.093 1.191 3.357 0.335 0.163-0.118 0.837-0.878 1.382-1.529 0.247-0.415 0.614-0.7 1.064-0.825 0.599-0.167 1.304-0.044 1.985 0.345 0.164 0.096 3.883 2.292 4.954 4.316v0c0.544 1.027 0.357 2.269-0.465 3.091l-1.353 1.353c-1.668 1.667-3.509 2.507-5.491 2.507zM5.716 4.037c-0.404 0-0.802 0.158-1.104 0.46l-1.353 1.353c-3.503 3.504-2.792 7.767 2.113 12.673l7.843 7.844c4.905 4.906 9.169 5.616 12.673 2.113l1.353-1.353c0.489-0.489 0.599-1.227 0.277-1.838v0c-0.772-1.459-3.543-3.304-4.545-3.891-0.414-0.236-0.853-0.325-1.165-0.24-0.192 0.054-0.338 0.173-0.446 0.365l-0.055 0.081c-0.379 0.455-1.298 1.537-1.632 1.764-1.68 1.138-3.264 0.982-4.71-0.464l-6.127-6.127c-1.446-1.446-1.603-3.031-0.465-4.71 0.227-0.334 1.309-1.253 1.764-1.633l0.080-0.055c0.192-0.108 0.311-0.254 0.365-0.446 0.087-0.314-0.004-0.752-0.244-1.171-0.018-0.030-2.131-3.61-3.888-4.539-0.233-0.123-0.485-0.183-0.734-0.183z"></path>
<path fill="#388f04" d="M21.333 25.872c-0.018 0-0.037-0.001-0.055-0.003-3.678-0.382-6.085-2.719-6.186-2.818-0.21-0.206-0.212-0.544-0.006-0.753 0.206-0.211 0.543-0.213 0.754-0.007 0.022 0.021 2.255 2.174 5.548 2.516 0.293 0.031 0.506 0.293 0.476 0.586-0.029 0.274-0.26 0.478-0.53 0.478z"></path>
<path fill="#388f04" d="M9.598 17.338c-0.119 0-0.239-0.040-0.339-0.122-0.122-0.1-3.007-2.515-3.392-6.223-0.030-0.293 0.183-0.555 0.476-0.586 0.294-0.026 0.555 0.183 0.586 0.476 0.339 3.264 2.983 5.489 3.009 5.511 0.227 0.188 0.259 0.524 0.071 0.751-0.107 0.128-0.259 0.194-0.412 0.194z"></path>
<path fill="#efce4a" d="M14.594 0.26c-0.295 0-0.533 0.238-0.533 0.533s0.238 0.533 0.533 0.533c9.010 0 16.339 7.33 16.339 16.339 0 0.295 0.238 0.533 0.533 0.533s0.533-0.238 0.533-0.533c0-9.598-7.808-17.406-17.406-17.406z"></path>
<path fill="#efce4a" d="M14.594 4.009c-0.295 0-0.533 0.238-0.533 0.533s0.238 0.533 0.533 0.533c6.942 0 12.589 5.648 12.589 12.589 0 0.295 0.238 0.533 0.533 0.533s0.533-0.238 0.533-0.533c0.001-7.529-6.126-13.656-13.656-13.656z"></path>
<path fill="#efce4a" d="M14.594 7.759c-0.295 0-0.533 0.238-0.533 0.533s0.238 0.533 0.533 0.533c4.875 0 8.84 3.966 8.84 8.84 0 0.295 0.238 0.533 0.533 0.533s0.533-0.238 0.533-0.533c0-5.463-4.444-9.907-9.907-9.907z"></path>
</svg>
