<!-- Generated by IcoMoon.io -->
<svg version="1.1" xmlns="http://www.w3.org/2000/svg" width="32" height="32" viewBox="0 0 32 32">
<title>telegram</title>
<path fill="#7aa5da" d="M32 16c0 8.837-7.163 16-16 16s-16-7.163-16-16c0-8.837 7.163-16 16-16s16 7.163 16 16z"></path>
<path fill="#5786b5" d="M31.995 15.63l-7.103-7.091-11.569 14.102 8.33 8.33c6.046-2.284 10.346-8.125 10.346-14.971 0-0.124-0.002-0.247-0.005-0.37z"></path>
<path fill="#fff" d="M23.982 8.345c0.638-0.249 1.297 0.309 1.157 0.979l-2.861 13.674c-0.134 0.641-0.887 0.93-1.415 0.542l-4.318-3.17-2.201 2.248c-0.387 0.394-1.054 0.234-1.22-0.292l-1.588-5.041-4.257-1.257c-0.559-0.165-0.591-0.943-0.050-1.155l16.752-6.527zM21.882 11.379c0.186-0.165-0.030-0.456-0.241-0.324l-9.188 5.699c-0.162 0.1-0.236 0.297-0.179 0.479l1.253 5.503c0.025 0.084 0.145 0.072 0.156-0.015l0.28-4.193c0.011-0.103 0.060-0.198 0.138-0.267l7.781-6.881z"></path>
<path fill="#9ec2e5" d="M21.641 11.055c0.211-0.131 0.428 0.159 0.241 0.324l-7.781 6.881c-0.078 0.069-0.127 0.164-0.138 0.267l-0.28 4.193c-0.011 0.087-0.131 0.099-0.156 0.015l-1.253-5.503c-0.057-0.182 0.017-0.379 0.179-0.479l9.188-5.699z"></path>
<path fill="#fff" d="M13.572 22.792c-0.203-0.072-0.374-0.234-0.447-0.467l-1.588-5.041-4.257-1.257c-0.559-0.165-0.591-0.943-0.050-1.155l16.752-6.527c0.412-0.161 0.833 0.015 1.041 0.341-0.039-0.059-0.085-0.114-0.137-0.163l-11.365 9.278v0.406l-0.063-0.045 0.063 2.558v2.051c0.016 0.008 0.033 0.014 0.051 0.019v0.002h0z"></path>
<path fill="#d1d1d1" d="M25.158 9.095c0.003 0.073-0.002 0.151-0.018 0.229l-2.861 13.674c-0.134 0.641-0.887 0.93-1.415 0.542l-4.318-3.17-3.024-2.163v-0.406l11.365-9.278c0.052 0.049 0.098 0.103 0.137 0.163 0.008 0.013 0.015 0.025 0.023 0.037 0.006 0.013 0.014 0.026 0.020 0.038 0.006 0.013 0.013 0.026 0.018 0.039 0.006 0.014 0.012 0.027 0.017 0.041 0.004 0.012 0.010 0.025 0.014 0.039 0.014 0.042 0.025 0.085 0.032 0.13 0.004 0.028 0.008 0.056 0.010 0.086z"></path>
<path fill="#d1d1d1" d="M16.546 20.37l-2.201 2.248c-0.018 0.018-0.038 0.037-0.057 0.053s-0.039 0.030-0.059 0.044c-0.001 0.001-0.001 0.001-0.001 0.001-0.041 0.027-0.083 0.050-0.127 0.068-0.023 0.009-0.044 0.017-0.067 0.023-0.094 0.028-0.19 0.036-0.284 0.026-0.025-0.002-0.050-0.006-0.073-0.011-0.003 0-0.006-0.001-0.010-0.002-0.024-0.006-0.047-0.013-0.071-0.020-0.008-0.002-0.015-0.004-0.023-0.009l-0.051-2.071v-2.513l3.024 2.163z"></path>
<path fill="#dadde0" d="M14.287 22.671c-0.019 0.016-0.039 0.031-0.059 0.045v-0.001c0.021-0.014 0.040-0.028 0.059-0.044z"></path>
<path fill="#dadde0" d="M14.228 22.715v0.001c0 0 0-0.001-0.001 0 0 0 0 0 0.001-0.001z"></path>
<path fill="#dadde0" d="M14.1 22.784c0.044-0.018 0.086-0.041 0.127-0.068-0.041 0.027-0.084 0.049-0.127 0.068z"></path>
<path fill="#dadde0" d="M13.749 22.832c0.095 0.010 0.191 0.002 0.284-0.026-0.068 0.022-0.138 0.031-0.208 0.031-0.022 0-0.043-0.001-0.064-0.003-0.004 0-0.009 0-0.013-0.002z"></path>
<path fill="#fff" d="M13.825 22.838c-0.022 0-0.043-0.001-0.064-0.003 0.020 0.002 0.042 0.003 0.064 0.003z"></path>
<path fill="#fff" d="M13.749 22.832c0.004 0.002 0.009 0.002 0.013 0.002-0.023-0.001-0.043-0.004-0.065-0.009 0.017 0.003 0.034 0.005 0.052 0.006z"></path>
<path fill="#dadde0" d="M13.749 22.832c-0.017-0.001-0.034-0.003-0.052-0.006-0.008-0.001-0.015-0.002-0.022-0.004 0.024 0.004 0.048 0.009 0.073 0.011z"></path>
<path fill="#dadde0" d="M13.595 22.799c0.024 0.008 0.047 0.014 0.071 0.020-0.010-0.002-0.019-0.004-0.029-0.006-0.004-0.001-0.009-0.002-0.012-0.004-0.010-0.002-0.021-0.005-0.030-0.010z"></path>
<path fill="#fff" d="M13.637 22.813c0.010 0.002 0.019 0.004 0.029 0.006-0.010-0.001-0.019-0.003-0.029-0.006z"></path>
<path fill="#fff" d="M13.595 22.799c0.010 0.004 0.021 0.008 0.030 0.010-0.016-0.003-0.032-0.009-0.049-0.015 0.006 0.002 0.012 0.004 0.018 0.005z"></path>
<path fill="#dadde0" d="M13.595 22.799c-0.006-0.001-0.012-0.003-0.018-0.005-0.001 0.001-0.003 0-0.004-0.001v-0.002c0.008 0.004 0.015 0.006 0.023 0.009z"></path>
<path fill="#d1d1d1" d="M13.521 20.719l0.051 2.071c-0.017-0.005-0.034-0.012-0.051-0.019v-2.051z"></path>
<path fill="#dadde0" d="M13.521 18.207v2.513l-0.063-2.558z"></path>
<path fill="#adbcc9" d="M21.882 11.379l-7.781 6.881c-0.078 0.069-0.127 0.164-0.138 0.267l-0.28 4.194c-0.011 0.087-0.131 0.099-0.157 0.015l-1.252-5.503c-0.057-0.182 0.017-0.379 0.179-0.479l9.188-5.699c0.211-0.132 0.428 0.159 0.241 0.324z"></path>
</svg>
