<!-- Generated by IcoMoon.io -->
<svg version="1.1" xmlns="http://www.w3.org/2000/svg" width="32" height="32" viewBox="0 0 32 32">
<title>whatsap</title>
<path fill="#60fc7c" d="M27.1 4.879c6.131 6.131 6.131 16.072 0 22.203s-16.072 6.131-22.203 0c-6.131-6.131-6.131-16.072 0-22.203s16.072-6.131 22.203 0z"></path>
<path fill="#fff" d="M15.998 5.963c-5.524 0-10.017 4.494-10.017 10.017 0 1.943 0.552 3.809 1.6 5.429l-1.522 3.352c-0.14 0.309-0.089 0.671 0.131 0.929 0.169 0.198 0.413 0.307 0.666 0.307 0.077 0 0.155-0.010 0.231-0.031l4.193-1.15c1.447 0.774 3.071 1.182 4.718 1.182 5.523 0 10.017-4.494 10.017-10.017s-4.494-10.017-10.017-10.017zM15.998 24.248c-1.463 0-2.902-0.389-4.163-1.126-0.135-0.079-0.288-0.119-0.441-0.119-0.078 0-0.155 0.010-0.231 0.031l-2.739 0.751 0.954-2.102c0.13-0.286 0.096-0.619-0.087-0.873-1.021-1.415-1.56-3.085-1.56-4.83 0-4.559 3.709-8.268 8.268-8.268s8.268 3.709 8.268 8.268c0 4.559-3.709 8.268-8.268 8.268z"></path>
<path fill="#fff" d="M19.85 17.48c-0.42-0.251-0.965-0.531-1.46-0.329-0.379 0.155-0.621 0.749-0.867 1.052-0.126 0.156-0.277 0.18-0.47 0.102-1.423-0.567-2.514-1.517-3.299-2.826-0.133-0.204-0.109-0.364 0.051-0.553 0.237-0.279 0.535-0.596 0.599-0.973s-0.112-0.817-0.268-1.152c-0.199-0.428-0.421-1.039-0.85-1.281-0.395-0.223-0.914-0.098-1.265 0.188-0.607 0.494-0.899 1.268-0.89 2.035 0.002 0.218 0.029 0.435 0.080 0.646 0.122 0.506 0.356 0.978 0.619 1.428 0.198 0.339 0.414 0.667 0.647 0.983 0.761 1.034 1.708 1.933 2.805 2.604 0.548 0.336 1.138 0.63 1.749 0.832 0.685 0.226 1.296 0.462 2.036 0.322 0.775-0.147 1.539-0.627 1.846-1.373 0.091-0.221 0.137-0.467 0.086-0.701-0.105-0.483-0.759-0.77-1.149-1.003z"></path>
</svg>
