<svg xmlns="http://www.w3.org/2000/svg" aria-hidden="true" style="position:absolute;width:0;height:0;overflow:hidden">
  <defs>
    <symbol id="icon-gmail" viewBox="0 0 32 32">
      <path fill="#e0e0e0" d="M3.667 27h24.667a2.333 2.333 0 0 0 2.333-2.333V7.334a2.333 2.333 0 0 0-2.333-2.333H3.667a2.333 2.333 0 0 0-2.333 2.333v17.333A2.333 2.333 0 0 0 3.667 27z" style="fill:var(--color1, #e0e0e0)"/>
      <path fill="#d9d9d9" d="M17.333 27h11a2.333 2.333 0 0 0 2.333-2.333V7.334a2.333 2.333 0 0 0-2.333-2.333H3.666a2.333 2.333 0 0 0-2.333 2.333l16 19.667z" style="fill:var(--color2, #d9d9d9)"/>
      <path fill="#eee" d="M4.497 27h23.837a2.333 2.333 0 0 0 2.333-2.333v-17L4.497 27z" style="fill:var(--color3, #eee)"/>
      <path fill="#e0e0e0" d="M17.163 27h11.17a2.333 2.333 0 0 0 2.333-2.333v-17L12.513 21.078l4.649 5.923z" style="fill:var(--color1, #e0e0e0)"/>
      <path fill="#ca3737" d="M28.333 6.333H3.666c-1.289 0-2.333-.289-2.333 1v17.333a2.333 2.333 0 0 0 2.333 2.333h1v-19h22.667v19h1a2.333 2.333 0 0 0 2.333-2.333V7.333c0-1.289-1.045-1-2.333-1z" style="fill:var(--color4, #ca3737)"/>
      <path fill="#f5f5f5" d="M28.333 5H3.666a2.32 2.32 0 0 0-2.333 2.333c0 .804 1.012 1.505 1.012 1.505L16 18.503l13.655-9.665s1.012-.702 1.012-1.505a2.32 2.32 0 0 0-2.333-2.334z" style="fill:var(--color5, #f5f5f5)"/>
      <path fill="#e84f4b" d="M28.831 5.055 16 14 3.169 5.055a2.316 2.316 0 0 0-1.836 2.279c0 .804 1.012 1.505 1.012 1.505L16 18.504l13.655-9.665s1.012-.702 1.012-1.505a2.315 2.315 0 0 0-1.836-2.279z" style="fill:var(--color6, #e84f4b)"/>
    </symbol>
    <symbol id="icon-github" viewBox="0 0 32 32">
      <path fill="#3e77bf" d="M15.999.333C7.164.333 0 7.524 0 16.398a16.06 16.06 0 0 0 10.944 15.241c.799.148 1.091-.348 1.091-.774 0-.381-.014-1.391-.022-2.732-4.452.972-5.39-2.153-5.39-2.153-.727-1.856-1.775-2.349-1.775-2.349-1.453-.997.109-.978.109-.978 1.605.113 2.45 1.656 2.45 1.656 1.429 2.455 3.746 1.745 4.658 1.334.144-1.037.558-1.746 1.015-2.147-3.552-.406-7.287-1.783-7.287-7.938 0-1.753.623-3.188 1.646-4.312-.166-.406-.714-2.039.156-4.25 0 0 1.344-.431 4.4 1.646a15.314 15.314 0 0 1 4.006-.541c1.358.007 2.728.185 4.006.541 3.053-2.078 4.395-1.646 4.395-1.646.872 2.211.324 3.844.158 4.25 1.026 1.124 1.645 2.558 1.645 4.312 0 6.17-3.741 7.528-7.305 7.926.574.496 1.086 1.476 1.086 2.975 0 2.148-.019 3.879-.019 4.406 0 .43.289.931 1.1.772a16.062 16.062 0 0 0 10.932-15.239c0-8.873-7.164-16.065-16.001-16.065z" style="fill:var(--color3, #3e77bf)"/>
      <path fill="#114c82" d="M24.419 7.041c.847 2.187.307 3.802.142 4.205 1.026 1.124 1.645 2.558 1.645 4.312 0 6.17-3.741 7.528-7.305 7.926.574.496 1.086 1.476 1.086 2.975 0 2.148-.019 3.879-.019 4.406 0 .43.289.931 1.1.772A16.06 16.06 0 0 0 32 16.398c0-1.907-.332-3.735-.94-5.432-2.206-2.323-4.661-3.869-6.641-3.925zM12.45 24.343c.18-.362.399-.644.63-.848-1.947-.223-3.946-.743-5.358-2.177 1.086 1.807 2.854 2.63 4.728 3.025z" style="fill:var(--color4, #114c82)"/>
      <path fill="#6ca9ea" d="M.833 17.48c0-8.873 7.164-16.065 15.999-16.065 4.906 0 9.294 2.219 12.228 5.709C26.162 3.016 21.394.332 15.999.332 7.164.332 0 7.523 0 16.397c0 3.956 1.427 7.576 3.79 10.374A16.012 16.012 0 0 1 .833 17.48z" style="fill:var(--color5, #6ca9ea)"/>
      <path fill="#083e66" d="M20.82 27.542c0-1.499-.511-2.48-1.086-2.976 3.564-.397 7.306-1.756 7.306-7.926 0-1.754-.619-3.187-1.646-4.311.166-.406.716-2.039-.158-4.25 0 0-.166-.051-.509-.031.375 1.667-.027 2.859-.165 3.198 1.026 1.124 1.645 2.558 1.645 4.312 0 6.17-3.741 7.528-7.305 7.926.574.496 1.086 1.476 1.086 2.975 0 2.148-.019 3.879-.019 4.406 0 .379.226.811.834.801.004-.726.019-2.268.019-4.123z" style="fill:var(--color6, #083e66)"/>
      <path fill="#114c82" d="M7.578 27.355c.336.692 1.465 2.348 4.444 1.999-.004-.364-.007-.773-.009-1.221-2.298.502-3.655-.09-4.435-.778z" style="fill:var(--color4, #114c82)"/>
      <path fill="#6ca9ea" d="M8.153 25.251a3.935 3.935 0 0 0-.574-.68c.181.269.374.494.574.68z" style="fill:var(--color5, #6ca9ea)"/>
    </symbol>
    <symbol id="icon-icon-whatsapp" viewBox="0 0 32 32">
      <path fill="#fff" d="m3.245 28.869 1.796-6.557a12.625 12.625 0 0 1-1.69-6.326C3.354 9.009 9.032 3.333 16.009 3.333c3.386.001 6.563 1.319 8.953 3.711s3.705 5.571 3.704 8.952c-.003 6.977-5.681 12.653-12.657 12.653-.001 0 0 0 0 0h-.005a12.646 12.646 0 0 1-6.049-1.541l-6.71 1.76z" style="fill:var(--color7, #fff)"/>
      <path fill="#fff" d="M3.245 29.202a.335.335 0 0 1-.322-.421l1.759-6.424a12.985 12.985 0 0 1-1.665-6.371C3.02 8.825 8.847 2.999 16.008 2.999c3.473.001 6.737 1.354 9.189 3.809s3.803 5.718 3.801 9.187c-.003 7.161-5.831 12.987-12.991 12.987a13.024 13.024 0 0 1-6.096-1.518L3.328 29.19a.305.305 0 0 1-.085.011z" style="fill:var(--color7, #fff)"/>
      <path fill="#cfd8dc" d="M16.009 3.333c3.386.001 6.563 1.319 8.953 3.711s3.705 5.571 3.704 8.952c-.003 6.977-5.681 12.653-12.657 12.653h-.005a12.646 12.646 0 0 1-6.049-1.541l-6.71 1.76 1.796-6.557a12.625 12.625 0 0 1-1.69-6.326C3.354 9.008 9.032 3.332 16.009 3.332zm0 25.316zm0 0zm0-25.982c-7.344 0-13.321 5.975-13.325 13.319a13.333 13.333 0 0 0 1.641 6.415l-1.723 6.293a.666.666 0 0 0 .812.821l6.458-1.693a13.35 13.35 0 0 0 6.131 1.496c7.349 0 13.327-5.975 13.33-13.32a13.236 13.236 0 0 0-3.899-9.423 13.25 13.25 0 0 0-9.426-3.907z" style="fill:var(--color8, #cfd8dc)"/>
      <path fill="#40c351" d="M23.451 8.555a10.45 10.45 0 0 0-7.438-3.084c-5.803 0-10.522 4.717-10.525 10.516a10.482 10.482 0 0 0 1.609 5.597l.251.398-1.063 3.881 3.982-1.044.385.228a10.502 10.502 0 0 0 5.355 1.466h.004c5.799 0 10.518-4.718 10.52-10.517a10.452 10.452 0 0 0-3.079-7.441z" style="fill:var(--color9, #40c351)"/>
      <path fill="#fff" d="M12.845 10.697c-.237-.527-.486-.537-.712-.547-.185-.008-.395-.007-.606-.007s-.553.079-.843.396c-.29.317-1.107 1.081-1.107 2.637s1.133 3.06 1.291 3.271c.158.211 2.188 3.506 5.403 4.774 2.671 1.053 3.215.844 3.795.791s1.871-.765 2.135-1.503c.263-.739.263-1.371.185-1.503s-.29-.211-.606-.369-1.871-.923-2.161-1.029c-.29-.105-.501-.158-.712.159s-.817 1.029-1.001 1.239c-.185.211-.369.238-.685.079s-1.335-.492-2.543-1.569c-.94-.838-1.575-1.873-1.759-2.19s-.02-.487.139-.645c.142-.142.316-.369.475-.554s.211-.317.316-.527c.105-.211.053-.396-.027-.554-.078-.159-.693-1.723-.974-2.348z" style="fill:var(--color7, #fff)"/>
    </symbol>
    <symbol id="icon-telegram" viewBox="0 0 32 32">
      <path fill="#29b6f6" d="M16 2.667C8.636 2.667 2.667 8.637 2.667 16S8.637 29.333 16 29.333c7.364 0 13.333-5.97 13.333-13.333S23.363 2.667 16 2.667z" style="fill:var(--color10, #29b6f6)"/>
      <path fill="#fff" d="m22.633 10-2.497 12.751s-.107.583-.83.583c-.384 0-.582-.183-.582-.183l-5.409-4.489-2.647-1.334-3.397-.903s-.605-.175-.605-.675c0-.417.622-.615.622-.615L21.499 9.49c-.001-.001.434-.157.751-.156.195 0 .417.083.417.333 0 .167-.033.333-.033.333z" style="fill:var(--color7, #fff)"/>
      <path fill="#b0bec5" d="m15.333 20.337-2.284 2.249s-.099.077-.232.08a.33.33 0 0 1-.146-.029l.643-3.977 2.019 1.676z" style="fill:var(--color11, #b0bec5)"/>
      <path fill="#cfd8dc" d="M19.931 12.131a.333.333 0 0 0-.467-.062l-8.797 5.265s1.404 3.928 1.618 4.608.387.697.387.697l.643-3.977 6.555-6.064a.333.333 0 0 0 .063-.467z" style="fill:var(--color8, #cfd8dc)"/>
    </symbol>
    <symbol id="icon-linkedin" viewBox="0 0 32 32">
      <path fill="#0e76a8" d="M16 0c8.837 0 16 7.164 16 16s-7.163 16-16 16S0 24.836 0 16 7.163 0 16 0z" style="fill:var(--color1, #0e76a8)"/>
      <path fill="#fff" d="M9.016 21.984h2.996v-9.986H9.016v9.986zm11.672-10.332c-1.454 0-2.755.531-3.678 1.703v-1.39h-3.007v10.019h3.007v-5.418c0-1.145 1.049-2.262 2.363-2.262s1.638 1.117 1.638 2.234v5.445h2.996v-5.668c0-3.937-1.864-4.663-3.319-4.663zM10.5 11a1.5 1.5 0 1 0-.001-3.001A1.5 1.5 0 0 0 10.5 11z" style="fill:var(--color2, #fff)"/>
    </symbol>
        <symbol id="icon-phone" viewBox="0 0 32 32">
      <path fill="#cb465f" d="M31.467 21.328a4.64 4.64 0 0 1-4.636-4.636.532.532 0 1 1 1.066 0 3.574 3.574 0 0 0 3.569 3.569.532.532 0 1 1 0 1.066z" style="fill:var(--color1, #cb465f)"/>
      <path fill="#cb465f" d="M31.069 19.013a1.925 1.925 0 0 1-1.923-1.923.532.532 0 1 1 1.066 0c0 .473.384.856.856.856a.532.532 0 1 1 0 1.066z" style="fill:var(--color1, #cb465f)"/>
      <path fill="#7383bf" d="M14.77 5.698a.533.533 0 0 1-.533-.533 3.573 3.573 0 0 0-3.569-3.569.533.533 0 1 1 0-1.066 4.641 4.641 0 0 1 4.636 4.636.533.533 0 0 1-.533.533z" style="fill:var(--color2, #7383bf)"/>
      <path fill="#7383bf" d="M12.455 5.301a.533.533 0 0 1-.533-.533.856.856 0 0 0-.855-.856.533.533 0 1 1 0-1.066c1.06 0 1.922.862 1.922 1.923a.533.533 0 0 1-.533.533z" style="fill:var(--color2, #7383bf)"/>
      <path fill="#52c306" d="M27.988 24.772c-1.012-1.913-4.746-4.101-4.746-4.101-.845-.482-1.864-.535-2.346.323 0 0-1.213 1.455-1.522 1.664-1.41.955-2.715.918-4.033-.4l-6.126-6.126c-1.318-1.318-1.355-2.623-.4-4.033.209-.309 1.664-1.522 1.664-1.522.858-.482.805-1.501.323-2.346 0 0-2.188-3.734-4.101-4.746a2.095 2.095 0 0 0-2.464.371L2.883 5.208C-1.408 9.499.705 14.343 4.995 18.634l7.843 7.843c4.291 4.291 9.135 6.404 13.426 2.112l1.353-1.353a2.097 2.097 0 0 0 .371-2.464z" style="fill:var(--color3, #52c306)"/>
      <path fill="#388f04" d="M21.153 31.471c-2.688 0-5.619-1.544-8.692-4.616l-7.842-7.843C2.198 16.591.712 14.246.202 12.043c-.611-2.644.164-5.07 2.304-7.21L3.859 3.48a2.618 2.618 0 0 1 3.091-.465c2.024 1.071 4.22 4.79 4.312 4.948.391.686.514 1.391.348 1.99a1.78 1.78 0 0 1-.825 1.065c-.651.544-1.411 1.219-1.531 1.385-.854 1.26-.754 2.264.337 3.355l6.126 6.126c1.091 1.09 2.094 1.19 3.357.335.163-.118.838-.878 1.382-1.529.247-.415.614-.7 1.064-.825.6-.167 1.304-.044 1.984.345.164.096 3.883 2.292 4.953 4.316a2.617 2.617 0 0 1-.465 3.091l-1.353 1.353c-1.67 1.671-3.513 2.504-5.487 2.504zM5.718 3.773c-.404 0-.802.158-1.104.46L3.261 5.586c-1.889 1.89-2.55 3.922-2.019 6.216.464 2.006 1.854 4.178 4.132 6.455l7.842 7.843c4.905 4.904 9.168 5.615 12.672 2.112l1.353-1.353a1.558 1.558 0 0 0 .277-1.838c-.93-1.756-4.509-3.87-4.544-3.891-.414-.236-.852-.325-1.166-.24a.721.721 0 0 0-.446.365l-.055.081c-.379.455-1.298 1.537-1.632 1.764-1.679 1.138-3.263.981-4.71-.465L8.84 16.509c-1.446-1.446-1.602-3.031-.465-4.71.227-.334 1.309-1.253 1.764-1.632l.08-.055a.721.721 0 0 0 .365-.446c.087-.314-.004-.751-.244-1.171-.018-.03-2.131-3.609-3.888-4.539a1.564 1.564 0 0 0-.733-.183z" style="fill:var(--color4, #388f04)"/>
      <path fill="#388f04" d="M21.334 25.606a.507.507 0 0 1-.055-.003c-3.677-.382-6.085-2.718-6.186-2.817a.532.532 0 1 1 .748-.76c.022.021 2.255 2.174 5.548 2.516a.534.534 0 0 1-.054 1.064zM9.6 17.073a.528.528 0 0 1-.338-.122c-.123-.1-3.006-2.515-3.391-6.223a.534.534 0 0 1 .476-.586.54.54 0 0 1 .586.476c.339 3.264 2.982 5.488 3.009 5.51a.533.533 0 0 1-.341.945z" style="fill:var(--color4, #388f04)"/>
    </symbol>
    <symbol id="icon-location" viewBox="0 0 32 32">
      <path fill="#0cc18e" d="M27.235 11.236C27.235 5.031 22.205 0 15.999 0S4.764 5.031 4.764 11.236c0 3.139 1.373 6.704 3.366 9.479L15.999 32l7.871-11.287c2.373-3.392 3.364-6.339 3.364-9.476z" style="fill:var(--color1, #0cc18e)"/>
      <path fill="#17dd9f" d="M16 0C9.795 0 4.765 5.031 4.765 11.236z" style="fill:var(--color2, #17dd9f)"/>
      <path fill="#039176" d="m16 32 7.871-11.287c2.372-3.392 3.364-6.34 3.364-9.476 0-6.205-5.03-11.236-11.236-11.236z" style="fill:var(--color3, #039176)"/>
      <path fill="#047f73" d="M27.235 11.236C27.235 5.031 22.205 0 15.999 0z" style="fill:var(--color4, #047f73)"/>
      <path fill="#f44d71" d="M21.05 10.597a5.05 5.05 0 1 1-10.1 0 5.05 5.05 0 0 1 10.1 0z" style="fill:var(--color5, #f44d71)"/>
      <path fill="#ff6679" d="M10.951 10.597c0-2.789 2.26-5.05 5.048-5.05z" style="fill:var(--color6, #ff6679)"/>
      <path fill="#d60949" d="M16 5.547a5.049 5.049 0 1 1 0 10.098z" style="fill:var(--color7, #d60949)"/>
      <path fill="#b50444" d="M21.049 10.597a5.049 5.049 0 0 1-5.05 5.048z" style="fill:var(--color8, #b50444)"/>
    </symbol>
  </defs>
</svg>
