<svg aria-hidden="true" style="position: absolute; width: 0; height: 0; overflow: hidden;" version="1.1" xmlns="http://www.w3.org/2000/svg" xmlns:xlink="http://www.w3.org/1999/xlink">
<defs>
<symbol id="icon-location" viewBox="0 0 32 32">
<path fill="#5f9eeb" style="fill: var(--color1, #5f9eeb)" d="M32 16c0 1.575-0.228 3.097-0.652 4.534-0.994 3.368-3.066 6.275-5.818 8.318-2.662 1.977-5.959 3.147-9.53 3.147-8.836 0-16-7.164-16-16 0-4.422 1.794-8.424 4.694-11.32 2.895-2.891 6.892-4.68 11.306-4.68 3.314 0 6.392 1.008 8.946 2.733 4.256 2.875 7.054 7.745 7.054 13.267z"></path>
<path fill="#3a82d0" style="fill: var(--color2, #3a82d0)" d="M32 16c0 1.575-0.228 3.096-0.652 4.535-0.994 3.368-3.067 6.275-5.819 8.318-2.662 1.978-5.959 3.147-9.53 3.147-0.361 0-0.719-0.012-1.073-0.035 3.157-0.209 6.064-1.333 8.456-3.112 2.752-2.043 4.824-4.95 5.819-8.318 0.424-1.438 0.652-2.959 0.652-4.535 0-5.522-2.798-10.392-7.054-13.267-2.276-1.538-4.969-2.506-7.874-2.698 0.355-0.023 0.714-0.035 1.075-0.035 3.314 0 6.392 1.008 8.946 2.733 4.256 2.875 7.054 7.744 7.054 13.267z"></path>
<path fill="#a0d37d" style="fill: var(--color3, #a0d37d)" d="M32 16c0 1.575-0.228 3.096-0.652 4.535l-2.847-2.847c-0.094-0.094-0.215-0.157-0.346-0.179l-3.266-0.562c-0.131-0.023-0.252-0.085-0.346-0.179l-0.459-0.459c-0.121-0.121-0.189-0.285-0.189-0.455v-4.412c0-0.171 0.068-0.335 0.189-0.455l0.674-0.674c0.121-0.121 0.189-0.284 0.189-0.455v-7.123c4.256 2.875 7.054 7.744 7.054 13.267z"></path>
<path fill="#84b75b" style="fill: var(--color4, #84b75b)" d="M32 16c0 1.575-0.228 3.096-0.652 4.535l-1.739-1.739c0.16-0.908 0.244-1.841 0.244-2.796 0-4.53-1.882-8.619-4.907-11.53v-1.737c4.256 2.875 7.054 7.744 7.054 13.267z"></path>
<path fill="#a0d37d" style="fill: var(--color3, #a0d37d)" d="M25.53 25.713v3.14c-2.661 1.977-5.957 3.147-9.527 3.147-0.361 0-0.719-0.012-1.073-0.035-8.214-0.548-14.79-7.351-14.928-15.695-0.074-4.528 1.733-8.635 4.692-11.589l1.232 3.416c0.1 0.277 0.364 0.463 0.659 0.463h4.788c0.185 0 0.364 0.074 0.495 0.205l2.118 2.118c0.132 0.131 0.205 0.31 0.205 0.496v8.124c0 0.186 0.074 0.364 0.205 0.496l1.702 1.702c0.131 0.131 0.31 0.205 0.495 0.205h5.127c0.186 0 0.364 0.074 0.496 0.205l3.107 3.107c0.131 0.131 0.205 0.31 0.205 0.496z"></path>
<path fill="#84b75b" style="fill: var(--color4, #84b75b)" d="M25.53 26.939v1.914c-2.661 1.977-5.957 3.147-9.527 3.147-0.361 0-0.719-0.012-1.073-0.035 3.156-0.21 6.061-1.334 8.453-3.112 0.772-0.573 1.491-1.214 2.147-1.914z"></path>
<path fill="#eb5777" style="fill: var(--color5, #eb5777)" d="M19.897 14.163c0 2.301-3.413 8.464-4.648 10.619-0.195 0.339-0.684 0.339-0.878 0-1.235-2.154-4.648-8.317-4.648-10.619 0-2.81 2.278-5.087 5.087-5.087s5.087 2.278 5.087 5.087z"></path>
<path fill="#ebeef2" style="fill: var(--color6, #ebeef2)" d="M17.167 13.616c0 1.302-1.056 2.358-2.358 2.358s-2.358-1.056-2.358-2.358c0-1.302 1.056-2.358 2.358-2.358s2.358 1.056 2.358 2.358z"></path>
<path fill="#5f9eeb" style="fill: var(--color1, #5f9eeb)" d="M7.336 21.875h-1.158c-0.267 0-0.483-0.216-0.483-0.483s0.216-0.483 0.483-0.483h1.158c0.267 0 0.483 0.216 0.483 0.483s-0.216 0.483-0.483 0.483z"></path>
<path fill="#5f9eeb" style="fill: var(--color1, #5f9eeb)" d="M10.16 23.665h-3.982c-0.267 0-0.483-0.216-0.483-0.483s0.216-0.483 0.483-0.483h3.982c0.267 0 0.483 0.216 0.483 0.483s-0.216 0.483-0.483 0.483z"></path>
<path fill="#5f9eeb" style="fill: var(--color1, #5f9eeb)" d="M10.16 25.022h-3.982c-0.267 0-0.483-0.216-0.483-0.483s0.216-0.483 0.483-0.483h3.982c0.267 0 0.483 0.216 0.483 0.483s-0.216 0.483-0.483 0.483z"></path>
</symbol>
<symbol id="icon-gmail" viewBox="0 0 32 32">
<path fill="#c72020" style="fill: var(--color7, #c72020)" d="M8.54 29.161v0c-0.271 0.418-0.828 0.536-1.245 0.265-4.391-2.852-7.295-7.801-7.295-13.426 0-0.611 0.034-1.214 0.101-1.808 0.059-0.523 0.554-0.884 1.071-0.78v0c0.457 0.092 0.768 0.518 0.716 0.981-0.059 0.527-0.090 1.063-0.090 1.606 0 4.993 2.577 9.384 6.473 11.916 0.418 0.272 0.541 0.828 0.27 1.246z"></path>
<path fill="#517bbd" style="fill: var(--color8, #517bbd)" d="M25.068 28.073c0.294 0.414 0.189 0.989-0.234 1.27-1.192 0.791-2.497 1.427-3.886 1.878-0.413 0.134-0.832 0.251-1.258 0.352-0.095 0.023-0.191 0.044-0.287 0.065-0.238 0.051-0.476 0.098-0.718 0.138-0.168 0.028-0.336 0.054-0.505 0.077-0.067 0.009-0.134 0.018-0.201 0.026-0.036 0.004-0.073 0.009-0.109 0.013-0.071 0.008-0.142 0.016-0.213 0.023-0.292 0.030-0.586 0.052-0.883 0.066-0.257 0.012-0.515 0.019-0.775 0.019-0.279 0-0.555-0.007-0.83-0.021-0.325-0.016-0.647-0.043-0.966-0.079-1.277-0.142-2.508-0.435-3.676-0.861-0.539-0.196-1.066-0.421-1.576-0.672-0.482-0.237-0.647-0.844-0.354-1.294v0c0.246-0.38 0.739-0.521 1.145-0.321 0.454 0.223 0.921 0.423 1.401 0.598 1.036 0.378 2.129 0.637 3.262 0.764 0.283 0.032 0.569 0.056 0.857 0.070 0.244 0.012 0.489 0.019 0.737 0.019 0.231 0 0.46-0.006 0.688-0.017 0.262-0.012 0.524-0.032 0.783-0.059 0.063-0.006 0.126-0.013 0.189-0.021 0.032-0.004 0.065-0.008 0.097-0.011 0.059-0.008 0.119-0.015 0.178-0.023 0.151-0.020 0.299-0.044 0.448-0.069 0.214-0.036 0.426-0.077 0.637-0.122 0.086-0.018 0.171-0.038 0.255-0.058 0.378-0.089 0.751-0.194 1.117-0.313 1.23-0.399 2.387-0.962 3.444-1.664 0.404-0.269 0.949-0.171 1.231 0.226v0z"></path>
<path fill="#2ea853" style="fill: var(--color9, #2ea853)" d="M32 16.442c0 0.464-0.021 0.922-0.063 1.376-0.021 0.228-0.047 0.456-0.079 0.681-0.002 0.017-0.004 0.034-0.007 0.052-0.062 0.436-0.142 0.866-0.241 1.289-0.016 0.064-0.031 0.128-0.047 0.192-0.080 0.324-0.171 0.644-0.272 0.96-0.052 0.165-0.108 0.329-0.166 0.492-0.946 2.639-2.612 4.953-4.773 6.723-0.401 0.328-1.008 0.253-1.312-0.16v0c-0.271-0.367-0.204-0.872 0.151-1.163 1.918-1.571 3.396-3.624 4.235-5.966 0.052-0.144 0.101-0.29 0.148-0.436 0.090-0.28 0.171-0.565 0.241-0.852 0.014-0.057 0.028-0.113 0.042-0.171 0.087-0.376 0.159-0.757 0.214-1.144 0.002-0.016 0.004-0.031 0.006-0.046 0.028-0.2 0.052-0.402 0.070-0.604 0.038-0.402 0.056-0.81 0.056-1.222 0-0.067-0.001-0.134-0.002-0.202-0.009-0.619-0.061-1.227-0.152-1.823-0.068-0.443 0.223-0.863 0.673-0.971v0c0.512-0.122 1.026 0.206 1.104 0.709 0.104 0.673 0.163 1.36 0.173 2.059 0.001 0.075 0.001 0.15 0.001 0.226z"></path>
<path fill="#e84336" style="fill: var(--color10, #e84336)" d="M15.986 0.926v0c0 0.474-0.368 0.869-0.841 0.897-6.336 0.376-11.555 4.907-12.969 10.906-0.111 0.471-0.576 0.769-1.051 0.674h-0.001c-0.496-0.1-0.815-0.589-0.699-1.082 1.591-6.763 7.473-11.87 14.614-12.294 0.514-0.030 0.947 0.383 0.947 0.898z"></path>
<path fill="#fbbc18" style="fill: var(--color11, #fbbc18)" d="M15.93 0.926v0c0 0.474 0.368 0.869 0.841 0.897 6.336 0.376 11.555 4.907 12.969 10.906 0.111 0.471 0.576 0.769 1.051 0.674h0.001c0.496-0.1 0.815-0.589 0.699-1.082-1.591-6.763-7.473-11.87-14.614-12.294-0.514-0.030-0.947 0.383-0.947 0.898z"></path>
<path fill="#c72020" style="fill: var(--color7, #c72020)" d="M11.531 10.999v4.69l-3.625-2.714v-1.427c0-0.889 0.721-1.611 1.611-1.611v0c0.387 0 0.764 0.126 1.074 0.357l0.941 0.704z"></path>
<path fill="#fbbc18" style="fill: var(--color11, #fbbc18)" d="M24.094 11.548v1.433l-3.652 2.736v-4.69l0.984-0.737c0.305-0.229 0.676-0.352 1.058-0.352v0c0.889 0 1.611 0.721 1.611 1.611z"></path>
<path fill="#517bbd" style="fill: var(--color8, #517bbd)" d="M11.531 15.689v6.373h-2.479c-0.633 0-1.146-0.512-1.146-1.146v-7.942l3.625 2.714z"></path>
<path fill="#2ea853" style="fill: var(--color9, #2ea853)" d="M24.094 12.981v7.936c0 0.633-0.513 1.146-1.146 1.146h-2.507v-6.346l3.652-2.736z"></path>
<path fill="#e84336" style="fill: var(--color10, #e84336)" d="M20.441 11.027v4.69l-4.437 3.322-4.473-3.35v-4.69l4.473 3.35z"></path>
</symbol>
<symbol id="icon-telegram" viewBox="0 0 32 32">
<path fill="#7aa5da" style="fill: var(--color12, #7aa5da)" d="M32 16c0 8.837-7.163 16-16 16s-16-7.163-16-16c0-8.837 7.163-16 16-16s16 7.163 16 16z"></path>
<path fill="#5786b5" style="fill: var(--color13, #5786b5)" d="M31.995 15.63l-7.103-7.091-11.569 14.102 8.33 8.33c6.046-2.284 10.346-8.125 10.346-14.971 0-0.124-0.002-0.247-0.005-0.37z"></path>
<path fill="#fff" style="fill: var(--color14, #fff)" d="M23.982 8.345c0.638-0.249 1.297 0.309 1.157 0.979l-2.861 13.674c-0.134 0.641-0.887 0.93-1.415 0.542l-4.318-3.17-2.201 2.248c-0.387 0.394-1.054 0.234-1.22-0.292l-1.588-5.041-4.257-1.257c-0.559-0.165-0.591-0.943-0.050-1.155l16.752-6.527zM21.882 11.379c0.186-0.165-0.030-0.456-0.241-0.324l-9.188 5.699c-0.162 0.1-0.236 0.297-0.179 0.479l1.253 5.503c0.025 0.084 0.145 0.072 0.156-0.015l0.28-4.193c0.011-0.103 0.060-0.198 0.138-0.267l7.781-6.881z"></path>
<path fill="#9ec2e5" style="fill: var(--color15, #9ec2e5)" d="M21.641 11.055c0.211-0.131 0.428 0.159 0.241 0.324l-7.781 6.881c-0.078 0.069-0.127 0.164-0.138 0.267l-0.28 4.193c-0.011 0.087-0.131 0.099-0.156 0.015l-1.253-5.503c-0.057-0.182 0.017-0.379 0.179-0.479l9.188-5.699z"></path>
<path fill="#fff" style="fill: var(--color14, #fff)" d="M13.572 22.792c-0.203-0.072-0.374-0.234-0.447-0.467l-1.588-5.041-4.257-1.257c-0.559-0.165-0.591-0.943-0.050-1.155l16.752-6.527c0.412-0.161 0.833 0.015 1.041 0.341-0.039-0.059-0.085-0.114-0.137-0.163l-11.365 9.278v0.406l-0.063-0.045 0.063 2.558v2.051c0.016 0.008 0.033 0.014 0.051 0.019v0.002h0z"></path>
<path fill="#d1d1d1" style="fill: var(--color16, #d1d1d1)" d="M25.158 9.095c0.003 0.073-0.002 0.151-0.018 0.229l-2.861 13.674c-0.134 0.641-0.887 0.93-1.415 0.542l-4.318-3.17-3.024-2.163v-0.406l11.365-9.278c0.052 0.049 0.098 0.103 0.137 0.163 0.008 0.013 0.015 0.025 0.023 0.037 0.006 0.013 0.014 0.026 0.020 0.038 0.006 0.013 0.013 0.026 0.018 0.039 0.006 0.014 0.012 0.027 0.017 0.041 0.004 0.012 0.010 0.025 0.014 0.039 0.014 0.042 0.025 0.085 0.032 0.13 0.004 0.028 0.008 0.056 0.010 0.086z"></path>
<path fill="#d1d1d1" style="fill: var(--color16, #d1d1d1)" d="M16.546 20.37l-2.201 2.248c-0.018 0.018-0.038 0.037-0.057 0.053s-0.039 0.030-0.059 0.044c-0.001 0.001-0.001 0.001-0.001 0.001-0.041 0.027-0.083 0.050-0.127 0.068-0.023 0.009-0.044 0.017-0.067 0.023-0.094 0.028-0.19 0.036-0.284 0.026-0.025-0.002-0.050-0.006-0.073-0.011-0.003 0-0.006-0.001-0.010-0.002-0.024-0.006-0.047-0.013-0.071-0.020-0.008-0.002-0.015-0.004-0.023-0.009l-0.051-2.071v-2.513l3.024 2.163z"></path>
<path fill="#dadde0" style="fill: var(--color17, #dadde0)" d="M14.287 22.671c-0.019 0.016-0.039 0.031-0.059 0.045v-0.001c0.021-0.014 0.040-0.028 0.059-0.044z"></path>
<path fill="#dadde0" style="fill: var(--color17, #dadde0)" d="M14.228 22.715v0.001c0 0 0-0.001-0.001 0 0 0 0 0 0.001-0.001z"></path>
<path fill="#dadde0" style="fill: var(--color17, #dadde0)" d="M14.1 22.784c0.044-0.018 0.086-0.041 0.127-0.068-0.041 0.027-0.084 0.049-0.127 0.068z"></path>
<path fill="#dadde0" style="fill: var(--color17, #dadde0)" d="M13.749 22.832c0.095 0.010 0.191 0.002 0.284-0.026-0.068 0.022-0.138 0.031-0.208 0.031-0.022 0-0.043-0.001-0.064-0.003-0.004 0-0.009 0-0.013-0.002z"></path>
<path fill="#fff" style="fill: var(--color14, #fff)" d="M13.825 22.838c-0.022 0-0.043-0.001-0.064-0.003 0.020 0.002 0.042 0.003 0.064 0.003z"></path>
<path fill="#fff" style="fill: var(--color14, #fff)" d="M13.749 22.832c0.004 0.002 0.009 0.002 0.013 0.002-0.023-0.001-0.043-0.004-0.065-0.009 0.017 0.003 0.034 0.005 0.052 0.006z"></path>
<path fill="#dadde0" style="fill: var(--color17, #dadde0)" d="M13.749 22.832c-0.017-0.001-0.034-0.003-0.052-0.006-0.008-0.001-0.015-0.002-0.022-0.004 0.024 0.004 0.048 0.009 0.073 0.011z"></path>
<path fill="#dadde0" style="fill: var(--color17, #dadde0)" d="M13.595 22.799c0.024 0.008 0.047 0.014 0.071 0.020-0.010-0.002-0.019-0.004-0.029-0.006-0.004-0.001-0.009-0.002-0.012-0.004-0.010-0.002-0.021-0.005-0.030-0.010z"></path>
<path fill="#fff" style="fill: var(--color14, #fff)" d="M13.637 22.813c0.010 0.002 0.019 0.004 0.029 0.006-0.010-0.001-0.019-0.003-0.029-0.006z"></path>
<path fill="#fff" style="fill: var(--color14, #fff)" d="M13.595 22.799c0.010 0.004 0.021 0.008 0.030 0.010-0.016-0.003-0.032-0.009-0.049-0.015 0.006 0.002 0.012 0.004 0.018 0.005z"></path>
<path fill="#dadde0" style="fill: var(--color17, #dadde0)" d="M13.595 22.799c-0.006-0.001-0.012-0.003-0.018-0.005-0.001 0.001-0.003 0-0.004-0.001v-0.002c0.008 0.004 0.015 0.006 0.023 0.009z"></path>
<path fill="#d1d1d1" style="fill: var(--color16, #d1d1d1)" d="M13.521 20.719l0.051 2.071c-0.017-0.005-0.034-0.012-0.051-0.019v-2.051z"></path>
<path fill="#dadde0" style="fill: var(--color17, #dadde0)" d="M13.521 18.207v2.513l-0.063-2.558z"></path>
<path fill="#adbcc9" style="fill: var(--color18, #adbcc9)" d="M21.882 11.379l-7.781 6.881c-0.078 0.069-0.127 0.164-0.138 0.267l-0.28 4.194c-0.011 0.087-0.131 0.099-0.157 0.015l-1.252-5.503c-0.057-0.182 0.017-0.379 0.179-0.479l9.188-5.699c0.211-0.132 0.428 0.159 0.241 0.324z"></path>
</symbol>
<symbol id="icon-github" viewBox="0 0 32 32">
<path fill="#3f91cb" style="fill: var(--color19, #3f91cb)" d="M32 16c0 8.837-7.163 16-16 16s-16-7.163-16-16c0-8.837 7.163-16 16-16s16 7.163 16 16z"></path>
<path fill="#fff" style="fill: var(--color14, #fff)" d="M16 7.261c-4.948 0.002-8.958 4.013-8.958 8.961 0 3.935 2.536 7.277 6.062 8.482l0.063 0.019c0.447 0.082 0.613-0.194 0.613-0.431 0-0.214-0.008-0.919-0.012-1.668-2.492 0.542-3.019-1.057-3.019-1.057-0.408-1.036-0.995-1.313-0.995-1.313-0.813-0.556 0.063-0.544 0.063-0.544 0.899 0.063 1.375 0.924 1.375 0.924 0.799 1.369 2.096 0.974 2.607 0.744 0.081-0.579 0.313-0.974 0.569-1.198-1.992-0.225-4.085-0.992-4.085-4.427-0-0.015-0-0.032-0-0.049 0-0.911 0.351-1.74 0.925-2.358l-0.002 0.002c-0.093-0.226-0.4-1.137 0.087-2.371 0 0 0.75-0.241 2.464 0.919 0.673-0.191 1.445-0.302 2.244-0.302s1.571 0.11 2.304 0.316l-0.060-0.014c1.71-1.159 2.462-0.919 2.462-0.919 0.488 1.234 0.181 2.146 0.088 2.371 0.572 0.615 0.922 1.443 0.922 2.352 0 0.019-0 0.037-0 0.056l0-0.003c0 3.442-2.096 4.199-4.091 4.421 0.321 0.278 0.608 0.823 0.608 1.659 0 1.199-0.010 2.164-0.010 2.459 0 0.239 0.161 0.518 0.616 0.43 3.588-1.224 6.123-4.566 6.123-8.5 0-4.949-4.012-8.961-8.961-8.961-0 0-0 0-0 0v0z"></path>
<path fill="#fff" style="fill: var(--color14, #fff)" d="M10.434 20.125c-0.020 0.044-0.090 0.058-0.154 0.027s-0.101-0.090-0.081-0.135 0.089-0.059 0.154-0.028 0.102 0.091 0.080 0.135z"></path>
<path fill="#fff" style="fill: var(--color14, #fff)" d="M10.797 20.531c-0.043 0.039-0.125 0.021-0.183-0.041s-0.069-0.146-0.026-0.188 0.125-0.021 0.184 0.041 0.070 0.146 0.026 0.188z"></path>
<path fill="#fff" style="fill: var(--color14, #fff)" d="M11.15 21.047c-0.055 0.038-0.145 0-0.2-0.078s-0.055-0.175 0-0.213 0.144-0.004 0.201 0.075 0.054 0.176 0 0.216z"></path>
<path fill="#fff" style="fill: var(--color14, #fff)" d="M11.634 21.545c-0.049 0.054-0.154 0.039-0.23-0.034s-0.1-0.175-0.051-0.229 0.155-0.039 0.232 0.034 0.101 0.175 0.049 0.229z"></path>
<path fill="#fff" style="fill: var(--color14, #fff)" d="M12.301 21.835c-0.022 0.070-0.125 0.102-0.224 0.072s-0.168-0.113-0.148-0.184 0.125-0.104 0.224-0.072 0.168 0.112 0.146 0.184z"></path>
<path fill="#fff" style="fill: var(--color14, #fff)" d="M13.035 21.888c0 0.074-0.084 0.135-0.188 0.137s-0.194-0.058-0.195-0.131 0.084-0.135 0.191-0.137 0.194 0.058 0.194 0.131z"></path>
<path fill="#fff" style="fill: var(--color14, #fff)" d="M13.717 21.773c0.012 0.072-0.063 0.146-0.167 0.166s-0.201-0.026-0.214-0.097 0.063-0.148 0.166-0.168 0.201 0.025 0.214 0.098z"></path>
</symbol>
<symbol id="icon-phone" viewBox="0 0 32 32">
<path fill="#52c306" style="fill: var(--color20, #52c306)" d="M27.988 25.038c-1.012-1.913-4.746-4.102-4.746-4.102-0.845-0.482-1.864-0.535-2.346 0.323 0 0-1.213 1.455-1.522 1.664-1.41 0.955-2.715 0.918-4.033-0.4l-6.126-6.126c-1.318-1.318-1.355-2.624-0.4-4.033 0.209-0.309 1.664-1.522 1.664-1.522 0.858-0.482 0.805-1.501 0.323-2.346 0 0-2.188-3.734-4.102-4.746-0.814-0.431-1.813-0.281-2.465 0.371l-1.353 1.353c-4.291 4.291-2.178 9.136 2.113 13.427l7.844 7.844c4.291 4.291 9.136 6.404 13.427 2.113l1.353-1.353c0.65-0.652 0.801-1.652 0.37-2.466z"></path>
<path fill="#388f04" style="fill: var(--color21, #388f04)" d="M21.15 31.74c-0.562 0-1.135-0.068-1.72-0.203-2.204-0.509-4.549-1.995-6.97-4.417l-7.843-7.844c-5.33-5.329-6.061-10.232-2.113-14.18l1.353-1.353c0.822-0.822 2.063-1.009 3.091-0.465 2.025 1.071 4.22 4.79 4.312 4.948 0.392 0.686 0.514 1.391 0.348 1.99-0.125 0.451-0.41 0.817-0.825 1.065-0.651 0.544-1.411 1.219-1.53 1.384-0.855 1.261-0.754 2.265 0.337 3.356l6.126 6.126c1.090 1.090 2.093 1.191 3.357 0.335 0.163-0.118 0.837-0.878 1.382-1.529 0.247-0.415 0.614-0.7 1.064-0.825 0.599-0.167 1.304-0.044 1.985 0.345 0.164 0.096 3.883 2.292 4.954 4.316v0c0.544 1.027 0.357 2.269-0.465 3.091l-1.353 1.353c-1.668 1.667-3.509 2.507-5.491 2.507zM5.716 4.037c-0.404 0-0.802 0.158-1.104 0.46l-1.353 1.353c-3.503 3.504-2.792 7.767 2.113 12.673l7.843 7.844c4.905 4.906 9.169 5.616 12.673 2.113l1.353-1.353c0.489-0.489 0.599-1.227 0.277-1.838v0c-0.772-1.459-3.543-3.304-4.545-3.891-0.414-0.236-0.853-0.325-1.165-0.24-0.192 0.054-0.338 0.173-0.446 0.365l-0.055 0.081c-0.379 0.455-1.298 1.537-1.632 1.764-1.68 1.138-3.264 0.982-4.71-0.464l-6.127-6.127c-1.446-1.446-1.603-3.031-0.465-4.71 0.227-0.334 1.309-1.253 1.764-1.633l0.080-0.055c0.192-0.108 0.311-0.254 0.365-0.446 0.087-0.314-0.004-0.752-0.244-1.171-0.018-0.030-2.131-3.61-3.888-4.539-0.233-0.123-0.485-0.183-0.734-0.183z"></path>
<path fill="#388f04" style="fill: var(--color21, #388f04)" d="M21.333 25.872c-0.018 0-0.037-0.001-0.055-0.003-3.678-0.382-6.085-2.719-6.186-2.818-0.21-0.206-0.212-0.544-0.006-0.753 0.206-0.211 0.543-0.213 0.754-0.007 0.022 0.021 2.255 2.174 5.548 2.516 0.293 0.031 0.506 0.293 0.476 0.586-0.029 0.274-0.26 0.478-0.53 0.478z"></path>
<path fill="#388f04" style="fill: var(--color21, #388f04)" d="M9.598 17.338c-0.119 0-0.239-0.040-0.339-0.122-0.122-0.1-3.007-2.515-3.392-6.223-0.030-0.293 0.183-0.555 0.476-0.586 0.294-0.026 0.555 0.183 0.586 0.476 0.339 3.264 2.983 5.489 3.009 5.511 0.227 0.188 0.259 0.524 0.071 0.751-0.107 0.128-0.259 0.194-0.412 0.194z"></path>
<path fill="#efce4a" style="fill: var(--color22, #efce4a)" d="M14.594 0.26c-0.295 0-0.533 0.238-0.533 0.533s0.238 0.533 0.533 0.533c9.010 0 16.339 7.33 16.339 16.339 0 0.295 0.238 0.533 0.533 0.533s0.533-0.238 0.533-0.533c0-9.598-7.808-17.406-17.406-17.406z"></path>
<path fill="#efce4a" style="fill: var(--color22, #efce4a)" d="M14.594 4.009c-0.295 0-0.533 0.238-0.533 0.533s0.238 0.533 0.533 0.533c6.942 0 12.589 5.648 12.589 12.589 0 0.295 0.238 0.533 0.533 0.533s0.533-0.238 0.533-0.533c0.001-7.529-6.126-13.656-13.656-13.656z"></path>
<path fill="#efce4a" style="fill: var(--color22, #efce4a)" d="M14.594 7.759c-0.295 0-0.533 0.238-0.533 0.533s0.238 0.533 0.533 0.533c4.875 0 8.84 3.966 8.84 8.84 0 0.295 0.238 0.533 0.533 0.533s0.533-0.238 0.533-0.533c0-5.463-4.444-9.907-9.907-9.907z"></path>
</symbol>
<symbol id="icon-linkedin" viewBox="0 0 32 32">
<path fill="#007bbc" style="fill: var(--color23, #007bbc)" d="M15.999 31.718c-8.678 0-15.738-7.060-15.738-15.738s7.060-15.738 15.738-15.738c8.678 0 15.738 7.060 15.738 15.738s-7.060 15.738-15.738 15.738z"></path>
<path fill="#fff" style="fill: var(--color14, #fff)" d="M24.896 17.179v5.876c0 0.145-0.118 0.263-0.263 0.263h-3.034c-0.145 0-0.263-0.118-0.263-0.263v-5.465c0-1.438-0.514-2.42-1.803-2.42-0.983 0-1.568 0.661-1.826 1.302-0.094 0.229-0.118 0.547-0.118 0.868v5.716c0 0.145-0.118 0.263-0.263 0.263h-3.033c-0.146 0-0.264-0.117-0.263-0.263 0.007-1.455 0.037-8.517 0.006-10.176-0.003-0.147 0.116-0.266 0.263-0.266h3.027c0.145 0 0.263 0.118 0.263 0.263v1.254c-0.007 0.012-0.017 0.024-0.024 0.035h0.024v-0.035c0.473-0.728 1.317-1.768 3.208-1.768 2.342 0 4.098 1.53 4.098 4.818v0zM8.767 23.318h3.033c0.145 0 0.263-0.118 0.263-0.263v-10.18c0-0.145-0.118-0.263-0.263-0.263h-3.033c-0.145 0-0.263 0.118-0.263 0.263v10.18c0 0.145 0.118 0.263 0.263 0.263z"></path>
<path fill="#fff" style="fill: var(--color14, #fff)" d="M12.082 9.345c0 1.052-0.853 1.905-1.905 1.905s-1.905-0.853-1.905-1.905c0-1.052 0.853-1.905 1.905-1.905s1.905 0.853 1.905 1.905z"></path>
</symbol>
<symbol id="icon-whatsap" viewBox="0 0 32 32">
<path fill="#60fc7c" style="fill: var(--color24, #60fc7c)" d="M27.1 4.879c6.131 6.131 6.131 16.072 0 22.203s-16.072 6.131-22.203 0c-6.131-6.131-6.131-16.072 0-22.203s16.072-6.131 22.203 0z"></path>
<path fill="#fff" style="fill: var(--color14, #fff)" d="M15.998 5.963c-5.524 0-10.017 4.494-10.017 10.017 0 1.943 0.552 3.809 1.6 5.429l-1.522 3.352c-0.14 0.309-0.089 0.671 0.131 0.929 0.169 0.198 0.413 0.307 0.666 0.307 0.077 0 0.155-0.010 0.231-0.031l4.193-1.15c1.447 0.774 3.071 1.182 4.718 1.182 5.523 0 10.017-4.494 10.017-10.017s-4.494-10.017-10.017-10.017zM15.998 24.248c-1.463 0-2.902-0.389-4.163-1.126-0.135-0.079-0.288-0.119-0.441-0.119-0.078 0-0.155 0.010-0.231 0.031l-2.739 0.751 0.954-2.102c0.13-0.286 0.096-0.619-0.087-0.873-1.021-1.415-1.56-3.085-1.56-4.83 0-4.559 3.709-8.268 8.268-8.268s8.268 3.709 8.268 8.268c0 4.559-3.709 8.268-8.268 8.268z"></path>
<path fill="#fff" style="fill: var(--color14, #fff)" d="M19.85 17.48c-0.42-0.251-0.965-0.531-1.46-0.329-0.379 0.155-0.621 0.749-0.867 1.052-0.126 0.156-0.277 0.18-0.47 0.102-1.423-0.567-2.514-1.517-3.299-2.826-0.133-0.204-0.109-0.364 0.051-0.553 0.237-0.279 0.535-0.596 0.599-0.973s-0.112-0.817-0.268-1.152c-0.199-0.428-0.421-1.039-0.85-1.281-0.395-0.223-0.914-0.098-1.265 0.188-0.607 0.494-0.899 1.268-0.89 2.035 0.002 0.218 0.029 0.435 0.080 0.646 0.122 0.506 0.356 0.978 0.619 1.428 0.198 0.339 0.414 0.667 0.647 0.983 0.761 1.034 1.708 1.933 2.805 2.604 0.548 0.336 1.138 0.63 1.749 0.832 0.685 0.226 1.296 0.462 2.036 0.322 0.775-0.147 1.539-0.627 1.846-1.373 0.091-0.221 0.137-0.467 0.086-0.701-0.105-0.483-0.759-0.77-1.149-1.003z"></path>
</symbol>
</defs>
</svg>
